<svg width="62" height="61" viewBox="0 0 62 61" fill="none" xmlns="http://www.w3.org/2000/svg">
<mask id="mask0_90_1768" style="mask-type:alpha" maskUnits="userSpaceOnUse" x="0" y="0" width="62" height="61">
<ellipse cx="30.8837" cy="30.3396" rx="30.1395" ry="30.2264" fill="#1E90FF"/>
</mask>
<g mask="url(#mask0_90_1768)">
<ellipse cx="30.8837" cy="30.3396" rx="30.1395" ry="30.2264" fill="#1E90FF"/>
<ellipse cx="23.4413" cy="21.3934" rx="2.21692" ry="3.33496" fill="#242424"/>
<ellipse cx="38.3264" cy="21.4993" rx="2.21692" ry="3.33496" fill="#242424"/>
<path d="M34.4576 26.1885C34.7613 25.9753 35.1799 26.0494 35.3925 26.354C35.605 26.6586 35.5312 27.0784 35.2275 27.2916L32.9551 28.8867C31.5529 29.8711 29.6867 29.8711 28.2845 28.8867L26.0122 27.2916C25.7085 27.0784 25.6346 26.6586 25.8472 26.354C26.0598 26.0494 26.4784 25.9753 26.7821 26.1885L29.0544 27.7838C29.9943 28.4436 31.2454 28.4436 32.1853 27.7838L34.4576 26.1885Z" fill="#242424"/>
<path d="M59.8932 11.6511C60.1703 11.4041 60.5941 11.4288 60.8404 11.7064C61.0866 11.9841 61.0619 12.4095 60.7849 12.6566C59.0595 14.195 57.601 15.7718 56.3769 17.3678L59.2915 16.3895C59.5961 16.2873 59.9256 16.4523 60.0275 16.7577C60.1293 17.0633 59.965 17.3945 59.6603 17.4968L55.2184 18.9872C54.1796 20.5494 53.3523 22.1248 52.7098 23.6987L55.311 21.9727C55.579 21.7948 55.9404 21.8681 56.1176 22.1368C56.2947 22.4054 56.2209 22.7675 55.9533 22.9455L52.0409 25.5424C51.4539 27.3747 51.1014 29.1954 50.9407 30.9806L53.3006 28.5736C53.5259 28.344 53.8941 28.3406 54.1231 28.5664C54.352 28.7924 54.3543 29.1621 54.1291 29.392L50.8412 32.7465C50.8254 33.4556 50.8379 34.1576 50.8763 34.8506C50.9306 35.8286 51.0377 36.7893 51.1862 37.7287L52.7287 34.6376C52.8724 34.3498 53.2218 34.233 53.509 34.3765C53.7963 34.5205 53.9137 34.8715 53.7699 35.1596L51.5466 39.6138C51.946 41.3958 52.4891 43.0826 53.1181 44.6379L54.7742 41.321C54.9179 41.0328 55.2671 40.9159 55.5545 41.0598C55.8418 41.2038 55.9581 41.554 55.8144 41.8421L53.722 46.0364C54.7554 48.2879 55.9428 50.2069 57.0669 51.6665C57.2935 51.9607 57.2386 52.384 56.9451 52.6114C56.6517 52.8383 56.2307 52.7837 56.0043 52.4897C54.847 50.9871 53.6288 49.0289 52.564 46.7354L48.0085 44.4536C47.7213 44.3097 47.6051 43.9594 47.7486 43.6713C47.8923 43.3831 48.2416 43.2663 48.5289 43.4102L51.8442 45.0705C51.2017 43.4713 50.6471 41.7404 50.2372 39.9125L45.9631 37.7712C45.6758 37.6272 45.5594 37.2761 45.7031 36.988C45.8469 36.6999 46.197 36.5828 46.4844 36.7267L49.9461 38.4612C49.7446 37.3133 49.6035 36.132 49.5365 34.9256C49.5014 34.2926 49.4871 33.6529 49.4948 33.0076L45.9038 29.4647C45.6748 29.2388 45.6717 28.8692 45.8968 28.6393C46.122 28.4094 46.4902 28.4063 46.7192 28.6321L49.5577 31.4317C49.6922 29.4809 50.0392 27.4885 50.6501 25.485L47.892 21.301C47.7149 21.0324 47.7886 20.6703 48.0563 20.4923C48.3243 20.3144 48.6857 20.3877 48.8629 20.6564L51.1212 24.0824C51.7968 22.2414 52.7061 20.3983 53.8845 18.574L52.2993 13.8152C52.1975 13.5097 52.3619 13.1785 52.6665 13.0761C52.9712 12.9739 53.3006 13.1389 53.4025 13.4443L54.7074 17.361C56.0994 15.4191 57.8124 13.5064 59.8932 11.6511Z" fill="#F2F5FF"/>
<path d="M5.70817 54.0329C5.47533 54.3223 5.05252 54.3678 4.76404 54.1349C4.47559 53.9017 4.42994 53.4779 4.66275 53.1883C6.11118 51.3877 7.29119 49.5937 8.23679 47.819L5.52936 49.2625C5.24552 49.4139 4.89352 49.3055 4.74305 49.0208C4.59267 48.7362 4.70055 48.3834 4.98414 48.232L9.11336 46.0303C9.88287 44.3174 10.4421 42.6269 10.8186 40.968L8.53856 43.0995C8.30339 43.3193 7.93581 43.3063 7.7171 43.0705C7.49845 42.8347 7.5115 42.4656 7.74637 42.2456L11.1771 39.0373C11.4566 37.1318 11.5053 35.2766 11.3714 33.4882L9.436 36.2512C9.2513 36.5147 8.88904 36.5786 8.62608 36.394C8.36317 36.2093 8.2996 35.8464 8.48413 35.5827L11.181 31.7313C11.0803 31.0288 10.9531 30.338 10.8015 29.6602C10.5874 28.7031 10.3242 27.7715 10.0232 26.8681L9.00591 30.1771C8.91133 30.4851 8.58539 30.6582 8.27832 30.5638C7.97165 30.4692 7.79955 30.1436 7.89381 29.8359L9.35846 25.0688C8.67184 23.3766 7.85865 21.8025 6.98261 20.3722L5.89161 23.9234C5.79702 24.2314 5.47109 24.4045 5.16402 24.3101C4.85737 24.2155 4.68528 23.8898 4.77951 23.5822L6.15823 19.0951C4.7706 17.0472 3.28676 15.3516 1.93947 14.0988C1.66777 13.8462 1.65236 13.4203 1.90465 13.1475C2.15697 12.8749 2.58151 12.8585 2.85317 13.1111C4.242 14.4025 5.76534 16.1339 7.19241 18.2216L12.0523 19.7156C12.3593 19.8101 12.5316 20.1366 12.4371 20.4445C12.3425 20.7524 12.0165 20.9255 11.7095 20.8311L8.1742 19.7435C9.0703 21.2152 9.90134 22.8312 10.6051 24.567L15.1666 25.9693C15.4736 26.0638 15.6459 26.3903 15.5514 26.6982C15.4568 27.0061 15.1309 27.1792 14.8238 27.0848L11.1288 25.9481C11.5153 27.0459 11.8477 28.1863 12.1112 29.3639C12.25 29.9845 12.3686 30.6154 12.4669 31.2553L16.5904 34.1507C16.8532 34.3354 16.9162 34.6994 16.7316 34.9631C16.5469 35.2264 16.1846 35.2902 15.9217 35.1059L12.6632 32.8185C12.8497 34.7634 12.8342 36.7844 12.56 38.8599L15.9655 42.5336C16.1842 42.7694 16.1712 43.1385 15.9362 43.3585C15.701 43.5785 15.3325 43.5657 15.1138 43.3298L12.3248 40.3216C11.9601 42.2477 11.3647 44.2144 10.502 46.2072L12.8481 50.6449C12.9985 50.9296 12.8901 51.2836 12.6063 51.4349C12.3225 51.5861 11.9704 51.4778 11.82 51.1932L9.88964 47.5397C8.8343 49.6864 7.45788 51.8576 5.70817 54.0329Z" fill="#F2F5FF"/>
</g>
</svg>
